<?xml version="1.0" encoding="UTF-8"?>
<!DOCTYPE svg PUBLIC "-//W3C//DTD SVG 1.1//EN" "http://www.w3.org/Graphics/SVG/1.1/DTD/svg11.dtd">
<svg xmlns="http://www.w3.org/2000/svg" version="1.1" width="1084px" height="712px" style="shape-rendering:geometricPrecision; text-rendering:geometricPrecision; image-rendering:optimizeQuality; fill-rule:evenodd; clip-rule:evenodd" xmlns:xlink="http://www.w3.org/1999/xlink">
<g><path style="opacity:1" fill="#b3b2b2" d="M -0.5,-0.5 C 360.833,-0.5 722.167,-0.5 1083.5,-0.5C 1083.5,236.833 1083.5,474.167 1083.5,711.5C 722.167,711.5 360.833,711.5 -0.5,711.5C -0.5,474.167 -0.5,236.833 -0.5,-0.5 Z"/></g>
<g><path style="opacity:1" fill="#e9e9e9" d="M 550.5,101.5 C 559.324,102.33 568.324,102.83 577.5,103C 576.944,103.383 576.611,103.883 576.5,104.5C 570.988,108.503 565.321,112.337 559.5,116C 558.101,117.062 557.101,118.395 556.5,120C 559.126,128.803 562.126,137.47 565.5,146C 565,146.167 564.5,146.333 564,146.5C 556.781,140.804 549.281,135.471 541.5,130.5C 533.746,135.462 526.246,140.795 519,146.5C 518.5,146.333 518,146.167 517.5,146C 520.937,137.308 523.937,128.475 526.5,119.5C 519.815,114.476 513.148,109.476 506.5,104.5C 506.389,103.883 506.056,103.383 505.5,103C 514.676,102.83 523.676,102.33 532.5,101.5C 535.605,93.2146 538.605,84.8813 541.5,76.5C 544.395,84.903 547.395,93.2364 550.5,101.5 Z"/></g>
<g><path style="opacity:1" fill="#cac9c9" d="M 532.5,101.5 C 523.676,102.33 514.676,102.83 505.5,103C 506.056,103.383 506.389,103.883 506.5,104.5C 504.952,104.179 504.285,103.179 504.5,101.5C 513.833,101.5 523.167,101.5 532.5,101.5 Z"/></g>
<g><path style="opacity:1" fill="#cac9c9" d="M 550.5,101.5 C 559.833,101.5 569.167,101.5 578.5,101.5C 578.715,103.179 578.048,104.179 576.5,104.5C 576.611,103.883 576.944,103.383 577.5,103C 568.324,102.83 559.324,102.33 550.5,101.5 Z"/></g>
<g><path style="opacity:1" fill="#e9e9e9" d="M 429.5,132.5 C 438.446,134.311 447.78,135.145 457.5,135C 456.619,135.708 455.953,136.542 455.5,137.5C 448.415,141.427 442.082,146.26 436.5,152C 438.992,159.809 441.325,167.642 443.5,175.5C 443.167,176.167 442.833,176.833 442.5,177.5C 435.185,172.68 428.018,167.68 421,162.5C 413.588,167.125 406.422,172.125 399.5,177.5C 399.167,177.167 398.833,176.833 398.5,176.5C 401.63,168.037 403.796,159.371 405,150.5C 398.342,146.002 391.842,141.336 385.5,136.5C 385.389,135.883 385.056,135.383 384.5,135C 394.22,135.145 403.554,134.311 412.5,132.5C 413.706,127.37 415.539,122.37 418,117.5C 418.61,114.173 419.11,110.839 419.5,107.5C 420.5,107.5 421.5,107.5 422.5,107.5C 424.697,115.963 427.03,124.297 429.5,132.5 Z"/></g>
<g><path style="opacity:1" fill="#e9e9e9" d="M 670.5,132.5 C 679.446,134.311 688.78,135.145 698.5,135C 697.944,135.383 697.611,135.883 697.5,136.5C 690.077,141.089 683.077,146.256 676.5,152C 679.201,158.711 681.535,165.544 683.5,172.5C 684.112,174.338 684.112,176.005 683.5,177.5C 676.2,172.701 669.033,167.701 662,162.5C 654.094,167.236 646.594,172.57 639.5,178.5C 639.167,178 638.833,177.5 638.5,177C 641.152,168.687 643.819,160.354 646.5,152C 640.017,146.694 633.35,141.527 626.5,136.5C 626.389,135.883 626.056,135.383 625.5,135C 635.22,135.145 644.554,134.311 653.5,132.5C 655.97,124.297 658.303,115.963 660.5,107.5C 661.5,107.5 662.5,107.5 663.5,107.5C 663.457,110.91 663.957,114.243 665,117.5C 667.025,122.529 668.858,127.529 670.5,132.5 Z"/></g>
<g><path style="opacity:1" fill="#c1c1c1" d="M 412.5,132.5 C 403.554,134.311 394.22,135.145 384.5,135C 385.056,135.383 385.389,135.883 385.5,136.5C 383.952,136.179 383.285,135.179 383.5,133.5C 393.25,133.806 402.916,133.473 412.5,132.5 Z"/></g>
<g><path style="opacity:1" fill="#c1c0c0" d="M 429.5,132.5 C 439.44,133.144 449.44,133.81 459.5,134.5C 458.717,136.288 457.384,137.288 455.5,137.5C 455.953,136.542 456.619,135.708 457.5,135C 447.78,135.145 438.446,134.311 429.5,132.5 Z"/></g>
<g><path style="opacity:1" fill="#c1c1c1" d="M 653.5,132.5 C 644.554,134.311 635.22,135.145 625.5,135C 626.056,135.383 626.389,135.883 626.5,136.5C 625.005,136.585 624.005,135.919 623.5,134.5C 633.56,133.81 643.56,133.144 653.5,132.5 Z"/></g>
<g><path style="opacity:1" fill="#c1c1c1" d="M 670.5,132.5 C 680.084,133.473 689.75,133.806 699.5,133.5C 699.715,135.179 699.048,136.179 697.5,136.5C 697.611,135.883 697.944,135.383 698.5,135C 688.78,135.145 679.446,134.311 670.5,132.5 Z"/></g>
<g><path style="opacity:1" fill="#fefefe" d="M 585.5,416.5 C 584.518,419.962 584.185,423.629 584.5,427.5C 551.5,427.5 518.5,427.5 485.5,427.5C 481.341,393.809 491.008,364.976 514.5,341C 532.704,324.461 551.204,308.294 570,292.5C 582.896,278.21 583.73,263.377 572.5,248C 561.217,240.769 548.884,238.435 535.5,241C 521.58,245.252 511.746,254.085 506,267.5C 503.981,273.387 502.481,279.387 501.5,285.5C 500.746,288.023 500.08,290.689 499.5,293.5C 498.675,294.386 497.675,294.719 496.5,294.5C 492.176,294.073 487.842,293.739 483.5,293.5C 476.787,291.45 469.787,290.45 462.5,290.5C 454.112,289.6 445.778,288.6 437.5,287.5C 432.731,286.111 427.731,285.444 422.5,285.5C 415.808,285.053 409.141,284.386 402.5,283.5C 401.791,282.596 400.791,282.263 399.5,282.5C 399.5,280.5 399.5,278.5 399.5,276.5C 410.401,202.862 453.068,163.695 527.5,159C 563.916,155.381 598.582,161.381 631.5,177C 658.129,191.631 675.962,213.464 685,242.5C 692.196,274.721 684.862,303.054 663,327.5C 645.721,344.452 627.554,360.286 608.5,375C 601.578,381.918 595.411,389.418 590,397.5C 587.926,403.707 586.426,410.04 585.5,416.5 Z"/></g>
<g><path style="opacity:1" fill="#cdcccc" d="M 750.5,196.5 C 749.935,198.42 748.935,200.087 747.5,201.5C 747.857,199.411 748.523,197.411 749.5,195.5C 750.107,195.624 750.44,195.957 750.5,196.5 Z"/></g>
<g><path style="opacity:1" fill="#cfcfcf" d="M 335.5,201.5 C 334.034,200.653 333.2,199.32 333,197.5C 332.617,198.056 332.117,198.389 331.5,198.5C 331.415,197.005 332.081,196.005 333.5,195.5C 334.477,197.411 335.143,199.411 335.5,201.5 Z"/></g>
<g><path style="opacity:1" fill="#e9e9e9" d="M 335.5,201.5 C 338.109,207.992 340.109,214.659 341.5,221.5C 341.5,221.833 341.5,222.167 341.5,222.5C 350.167,223.167 358.833,223.833 367.5,224.5C 360.564,229.43 353.897,234.763 347.5,240.5C 350.094,245.544 351.761,250.877 352.5,256.5C 352.894,257.967 353.227,259.467 353.5,261C 353.316,262.376 352.649,263.209 351.5,263.5C 345.486,259.065 339.32,254.732 333,250.5C 326.712,254.297 320.879,258.63 315.5,263.5C 313.956,263.703 312.622,264.37 311.5,265.5C 311.167,265.167 310.833,264.833 310.5,264.5C 311.325,262.199 311.992,259.865 312.5,257.5C 315.255,251.814 316.755,245.814 317,239.5C 310.521,234.359 304.021,229.359 297.5,224.5C 306.713,224.156 315.713,223.156 324.5,221.5C 326.941,213.825 329.274,206.158 331.5,198.5C 332.117,198.389 332.617,198.056 333,197.5C 333.2,199.32 334.034,200.653 335.5,201.5 Z"/></g>
<g><path style="opacity:1" fill="#e9e9e9" d="M 750.5,196.5 C 753.481,204.662 756.148,212.995 758.5,221.5C 768.045,221.843 777.378,222.843 786.5,224.5C 779.565,228.92 772.732,233.587 766,238.5C 766.114,242.857 766.781,247.191 768,251.5C 771.028,255.836 772.195,260.503 771.5,265.5C 764.185,260.68 757.018,255.68 750,250.5C 742.588,255.125 735.422,260.125 728.5,265.5C 727.644,262.861 727.81,260.194 729,257.5C 731.019,251.741 733.186,246.074 735.5,240.5C 728.688,234.927 721.688,229.593 714.5,224.5C 723.324,223.67 732.324,223.17 741.5,223C 742.38,221.644 742.714,220.144 742.5,218.5C 743.566,212.638 745.232,206.971 747.5,201.5C 748.935,200.087 749.935,198.42 750.5,196.5 Z"/></g>
<g><path style="opacity:1" fill="#bfbfbf" d="M 323.5,221.5 C 314.287,221.844 305.287,222.844 296.5,224.5C 295.522,224.189 294.855,223.522 294.5,222.5C 304.144,221.502 313.81,221.168 323.5,221.5 Z"/></g>
<g><path style="opacity:1" fill="#bfbfbf" d="M 341.5,222.5 C 341.5,222.167 341.5,221.833 341.5,221.5C 351.522,221.168 361.522,221.501 371.5,222.5C 371.145,223.522 370.478,224.189 369.5,224.5C 360.56,222.528 351.227,221.861 341.5,222.5 Z"/></g>
<g><path style="opacity:1" fill="#bfbfbf" d="M 740.5,221.5 C 731.287,221.844 722.287,222.844 713.5,224.5C 712.596,223.791 712.263,222.791 712.5,221.5C 721.833,221.5 731.167,221.5 740.5,221.5 Z"/></g>
<g><path style="opacity:1" fill="#c0c0c0" d="M 758.5,221.5 C 768.522,221.168 778.522,221.501 788.5,222.5C 788.145,223.522 787.478,224.189 786.5,224.5C 777.378,222.843 768.045,221.843 758.5,221.5 Z"/></g>
<g><path style="opacity:1" fill="#dadada" d="M 323.5,221.5 C 323.833,221.5 324.167,221.5 324.5,221.5C 315.713,223.156 306.713,224.156 297.5,224.5C 297.167,224.5 296.833,224.5 296.5,224.5C 305.287,222.844 314.287,221.844 323.5,221.5 Z"/></g>
<g><path style="opacity:1" fill="#dadada" d="M 341.5,222.5 C 351.227,221.861 360.56,222.528 369.5,224.5C 368.833,224.5 368.167,224.5 367.5,224.5C 358.833,223.833 350.167,223.167 341.5,222.5 Z"/></g>
<g><path style="opacity:1" fill="#d9d9d9" d="M 742.5,218.5 C 742.714,220.144 742.38,221.644 741.5,223C 732.324,223.17 723.324,223.67 714.5,224.5C 714.167,224.5 713.833,224.5 713.5,224.5C 722.287,222.844 731.287,221.844 740.5,221.5C 741.167,220.5 741.833,219.5 742.5,218.5 Z"/></g>
<g><path style="opacity:1" fill="#c5c4c4" d="M 312.5,257.5 C 311.992,259.865 311.325,262.199 310.5,264.5C 310.833,264.833 311.167,265.167 311.5,265.5C 312.622,264.37 313.956,263.703 315.5,263.5C 313.884,266.482 311.55,267.482 308.5,266.5C 309.395,263.154 310.729,260.154 312.5,257.5 Z"/></g>
<g><path style="opacity:1" fill="#d7d6d6" d="M 352.5,256.5 C 354.346,259.294 355.68,262.461 356.5,266C 354.366,267.185 352.699,266.352 351.5,263.5C 352.649,263.209 353.316,262.376 353.5,261C 353.227,259.467 352.894,257.967 352.5,256.5 Z"/></g>
<g><path style="opacity:1" fill="#dadada" d="M 399.5,276.5 C 399.5,278.5 399.5,280.5 399.5,282.5C 400.791,282.263 401.791,282.596 402.5,283.5C 401.167,283.5 399.833,283.5 398.5,283.5C 398.198,280.941 398.532,278.607 399.5,276.5 Z"/></g>
<g><path style="opacity:1" fill="#e4e4e4" d="M 422.5,285.5 C 427.731,285.444 432.731,286.111 437.5,287.5C 432.25,287.698 427.25,287.031 422.5,285.5 Z"/></g>
<g><path style="opacity:1" fill="#e5e5e5" d="M 462.5,290.5 C 469.787,290.45 476.787,291.45 483.5,293.5C 476.294,293 469.294,292 462.5,290.5 Z"/></g>
<g><path style="opacity:1" fill="#cfcece" d="M 501.5,285.5 C 501.74,288.579 501.407,291.579 500.5,294.5C 499.042,295.782 497.708,295.782 496.5,294.5C 497.675,294.719 498.675,294.386 499.5,293.5C 500.08,290.689 500.746,288.023 501.5,285.5 Z"/></g>
<g><path style="opacity:1" fill="#c9c9c9" d="M 303.5,322.5 C 302.065,321.21 301.065,319.544 300.5,317.5C 299.641,320 298.641,322.333 297.5,324.5C 297.833,321.833 298.167,319.167 298.5,316.5C 299.833,316.5 301.167,316.5 302.5,316.5C 302.517,318.565 302.85,320.565 303.5,322.5 Z"/></g>
<g><path style="opacity:1" fill="#e9e9e9" d="M 303.5,322.5 C 305.803,329.039 307.803,335.706 309.5,342.5C 318.324,343.33 327.324,343.83 336.5,344C 335.944,344.383 335.611,344.883 335.5,345.5C 329.988,349.503 324.321,353.337 318.5,357C 317.101,358.062 316.101,359.395 315.5,361C 318.233,369.188 320.899,377.355 323.5,385.5C 323.167,385.833 322.833,386.167 322.5,386.5C 315.142,381.465 307.809,376.465 300.5,371.5C 292.37,375.979 284.87,381.312 278,387.5C 277.5,387.333 277,387.167 276.5,387C 279.655,378.377 282.655,369.71 285.5,361C 278.66,355.33 271.66,349.83 264.5,344.5C 273.5,343.833 282.5,343.167 291.5,342.5C 291.796,340.597 292.463,338.93 293.5,337.5C 294.946,334.746 295.946,331.746 296.5,328.5C 296.232,326.901 296.566,325.568 297.5,324.5C 298.641,322.333 299.641,320 300.5,317.5C 301.065,319.544 302.065,321.21 303.5,322.5 Z"/></g>
<g><path style="opacity:1" fill="#e9e9e9" d="M 791.5,342.5 C 800.324,343.33 809.324,343.83 818.5,344C 817.944,344.383 817.611,344.883 817.5,345.5C 811.891,349.313 806.224,353.147 800.5,357C 799.101,358.062 798.101,359.395 797.5,361C 800.345,369.71 803.345,378.377 806.5,387C 806,387.167 805.5,387.333 805,387.5C 797.741,381.791 790.241,376.457 782.5,371.5C 774.859,375.992 767.526,380.992 760.5,386.5C 761.976,378.052 764.309,369.552 767.5,361C 760.953,355.612 754.286,350.446 747.5,345.5C 747.389,344.883 747.056,344.383 746.5,344C 755.676,343.83 764.676,343.33 773.5,342.5C 776.605,334.291 779.605,325.958 782.5,317.5C 785.707,325.789 788.707,334.122 791.5,342.5 Z"/></g>
<g><path style="opacity:1" fill="#cccccc" d="M 296.5,328.5 C 295.946,331.746 294.946,334.746 293.5,337.5C 293.446,334.008 294.446,331.008 296.5,328.5 Z"/></g>
<g><path style="opacity:1" fill="#cdcccc" d="M 291.5,342.5 C 282.5,343.167 273.5,343.833 264.5,344.5C 263.957,344.44 263.624,344.107 263.5,343.5C 272.81,342.502 282.143,342.168 291.5,342.5 Z"/></g>
<g><path style="opacity:1" fill="#cdcccc" d="M 309.5,342.5 C 318.833,342.5 328.167,342.5 337.5,342.5C 337.715,344.179 337.048,345.179 335.5,345.5C 335.611,344.883 335.944,344.383 336.5,344C 327.324,343.83 318.324,343.33 309.5,342.5 Z"/></g>
<g><path style="opacity:1" fill="#cdcccc" d="M 773.5,342.5 C 764.676,343.33 755.676,343.83 746.5,344C 747.056,344.383 747.389,344.883 747.5,345.5C 745.952,345.179 745.285,344.179 745.5,342.5C 754.833,342.5 764.167,342.5 773.5,342.5 Z"/></g>
<g><path style="opacity:1" fill="#cccbcb" d="M 791.5,342.5 C 800.833,342.5 810.167,342.5 819.5,342.5C 819.715,344.179 819.048,345.179 817.5,345.5C 817.611,344.883 817.944,344.383 818.5,344C 809.324,343.83 800.324,343.33 791.5,342.5 Z"/></g>
<g><path style="opacity:1" fill="#dddddd" d="M 585.5,416.5 C 585.5,420.5 585.5,424.5 585.5,428.5C 551.996,428.832 518.662,428.498 485.5,427.5C 518.5,427.5 551.5,427.5 584.5,427.5C 584.185,423.629 584.518,419.962 585.5,416.5 Z"/></g>
<g><path style="opacity:1" fill="#e9e9e9" d="M 342.5,462.5 C 351.713,462.844 360.713,463.844 369.5,465.5C 361.34,469.655 354.006,474.988 347.5,481.5C 350.147,487.747 352.48,494.081 354.5,500.5C 355.528,502.56 355.528,504.56 354.5,506.5C 347.167,501.5 339.833,496.5 332.5,491.5C 325.295,496.264 318.295,501.264 311.5,506.5C 310.957,506.44 310.624,506.107 310.5,505.5C 311.325,503.199 311.992,500.865 312.5,498.5C 315.415,492.507 316.915,486.174 317,479.5C 310.286,474.612 303.453,469.946 296.5,465.5C 305.287,463.844 314.287,462.844 323.5,462.5C 323.833,462.5 324.167,462.5 324.5,462.5C 326.203,458.383 327.537,454.05 328.5,449.5C 329.359,445.438 330.526,441.438 332,437.5C 332.414,437.043 332.914,436.709 333.5,436.5C 336.53,445.259 339.53,453.926 342.5,462.5 Z"/></g>
<g><path style="opacity:1" fill="#e9e9e9" d="M 759.5,462.5 C 768.713,462.844 777.713,463.844 786.5,465.5C 779.881,469.149 773.548,473.315 767.5,478C 766.707,479.085 766.04,480.252 765.5,481.5C 766.402,487.449 768.068,493.115 770.5,498.5C 771.008,500.865 771.675,503.199 772.5,505.5C 772.376,506.107 772.043,506.44 771.5,506.5C 764.203,501.705 757.036,496.705 750,491.5C 742.588,496.125 735.422,501.125 728.5,506.5C 727.472,504.56 727.472,502.56 728.5,500.5C 730.571,493.939 732.905,487.439 735.5,481C 728.314,475.578 720.981,470.411 713.5,465.5C 722.287,463.844 731.287,462.844 740.5,462.5C 742.267,460.208 743.267,457.542 743.5,454.5C 745.448,452.68 746.448,450.346 746.5,447.5C 747.12,443.736 748.12,440.069 749.5,436.5C 752.553,443.482 755.053,450.815 757,458.5C 757.934,459.858 758.768,461.192 759.5,462.5 Z"/></g>
<g><path style="opacity:1" fill="#cecdcd" d="M 746.5,447.5 C 746.448,450.346 745.448,452.68 743.5,454.5C 743.935,451.843 744.935,449.509 746.5,447.5 Z"/></g>
<g><path style="opacity:1" fill="#fefefe" d="M 482.5,454.5 C 517.833,454.5 553.167,454.5 588.5,454.5C 588.5,485.5 588.5,516.5 588.5,547.5C 553.167,547.5 517.833,547.5 482.5,547.5C 482.5,516.5 482.5,485.5 482.5,454.5 Z"/></g>
<g><path style="opacity:1" fill="#c4c3c3" d="M 481.5,454.5 C 517.329,453.502 553.329,453.168 589.5,453.5C 589.832,485.338 589.498,517.004 588.5,548.5C 588.5,548.167 588.5,547.833 588.5,547.5C 588.5,516.5 588.5,485.5 588.5,454.5C 553.167,454.5 517.833,454.5 482.5,454.5C 482.167,454.5 481.833,454.5 481.5,454.5 Z"/></g>
<g><path style="opacity:1" fill="#cccbcb" d="M 328.5,449.5 C 327.537,454.05 326.203,458.383 324.5,462.5C 324.808,458.405 325.641,454.405 327,450.5C 327.383,449.944 327.883,449.611 328.5,449.5 Z"/></g>
<g><path style="opacity:1" fill="#c3c2c2" d="M 323.5,462.5 C 314.287,462.844 305.287,463.844 296.5,465.5C 295.522,465.189 294.855,464.522 294.5,463.5C 304.144,462.502 313.81,462.168 323.5,462.5 Z"/></g>
<g><path style="opacity:1" fill="#c3c2c2" d="M 342.5,462.5 C 351.833,462.5 361.167,462.5 370.5,462.5C 370.737,463.791 370.404,464.791 369.5,465.5C 360.713,463.844 351.713,462.844 342.5,462.5 Z"/></g>
<g><path style="opacity:1" fill="#c3c2c2" d="M 740.5,462.5 C 731.287,462.844 722.287,463.844 713.5,465.5C 712.596,464.791 712.263,463.791 712.5,462.5C 721.833,462.5 731.167,462.5 740.5,462.5 Z"/></g>
<g><path style="opacity:1" fill="#c3c2c2" d="M 759.5,462.5 C 769.19,462.168 778.856,462.502 788.5,463.5C 788.145,464.522 787.478,465.189 786.5,465.5C 777.713,463.844 768.713,462.844 759.5,462.5 Z"/></g>
<g><path style="opacity:1" fill="#c7c6c6" d="M 312.5,498.5 C 311.992,500.865 311.325,503.199 310.5,505.5C 310.624,506.107 310.957,506.44 311.5,506.5C 311.052,508.465 310.052,508.798 308.5,507.5C 309.395,504.154 310.729,501.154 312.5,498.5 Z"/></g>
<g><path style="opacity:1" fill="#c7c6c6" d="M 770.5,498.5 C 772.271,501.154 773.605,504.154 774.5,507.5C 772.948,508.798 771.948,508.465 771.5,506.5C 772.043,506.44 772.376,506.107 772.5,505.5C 771.675,503.199 771.008,500.865 770.5,498.5 Z"/></g>
<g><path style="opacity:1" fill="#e9e9e9" d="M 427.5,544.5 C 427.979,547.064 428.645,549.564 429.5,552C 438.676,552.17 447.676,552.67 456.5,553.5C 449.795,558.512 443.128,563.512 436.5,568.5C 435.903,568.735 435.57,569.235 435.5,570C 436.127,572.135 436.627,574.302 437,576.5C 437.2,578.32 438.034,579.653 439.5,580.5C 441.553,585.109 442.553,589.776 442.5,594.5C 434.885,590.037 427.718,585.037 421,579.5C 413.153,584.094 405.819,589.427 399,595.5C 398.807,592.636 399.307,589.97 400.5,587.5C 401.946,584.746 402.946,581.746 403.5,578.5C 404.027,575.091 404.527,571.758 405,568.5C 398.56,563.37 392.06,558.37 385.5,553.5C 394.324,552.67 403.324,552.17 412.5,552C 413.252,551.329 413.586,550.496 413.5,549.5C 415.887,541.255 417.887,532.922 419.5,524.5C 420.5,524.5 421.5,524.5 422.5,524.5C 422.959,531.53 424.626,538.197 427.5,544.5 Z"/></g>
<g><path style="opacity:1" fill="#e9e9e9" d="M 669.5,549.5 C 669.414,550.496 669.748,551.329 670.5,552C 679.676,552.17 688.676,552.67 697.5,553.5C 690.312,558.593 683.312,563.927 676.5,569.5C 680.869,577.645 683.369,586.312 684,595.5C 676.656,590.152 669.323,584.819 662,579.5C 654.673,583.905 647.839,588.905 641.5,594.5C 640.624,594.631 639.957,594.298 639.5,593.5C 640.325,591.199 640.992,588.865 641.5,586.5C 643.101,583.45 644.101,580.116 644.5,576.5C 646.357,574.739 647.357,572.406 647.5,569.5C 647.484,567.484 646.484,566.484 644.5,566.5C 638.109,562.644 632.109,558.311 626.5,553.5C 635.324,552.67 644.324,552.17 653.5,552C 654.355,549.564 655.021,547.064 655.5,544.5C 657.909,539.509 659.576,534.176 660.5,528.5C 660.5,527.167 660.5,525.833 660.5,524.5C 661.5,524.5 662.5,524.5 663.5,524.5C 665.107,532.917 667.107,541.25 669.5,549.5 Z"/></g>
<g><path style="opacity:1" fill="#d4d4d4" d="M 660.5,528.5 C 659.576,534.176 657.909,539.509 655.5,544.5C 656.504,539.484 657.67,534.484 659,529.5C 659.383,528.944 659.883,528.611 660.5,528.5 Z"/></g>
<g><path style="opacity:1" fill="#e3e2e2" d="M 481.5,454.5 C 481.833,454.5 482.167,454.5 482.5,454.5C 482.5,485.5 482.5,516.5 482.5,547.5C 517.833,547.5 553.167,547.5 588.5,547.5C 588.5,547.833 588.5,548.167 588.5,548.5C 552.833,548.5 517.167,548.5 481.5,548.5C 481.5,517.167 481.5,485.833 481.5,454.5 Z"/></g>
<g><path style="opacity:1" fill="#c0bebe" d="M 411.5,550.5 C 402.287,550.844 393.287,551.844 384.5,553.5C 383.596,552.791 383.263,551.791 383.5,550.5C 392.833,550.5 402.167,550.5 411.5,550.5 Z"/></g>
<g><path style="opacity:1" fill="#c0bebe" d="M 671.5,550.5 C 680.833,550.5 690.167,550.5 699.5,550.5C 699.737,551.791 699.404,552.791 698.5,553.5C 689.713,551.844 680.713,550.844 671.5,550.5 Z"/></g>
<g><path style="opacity:1" fill="#d7d6d6" d="M 413.5,549.5 C 413.586,550.496 413.252,551.329 412.5,552C 403.324,552.17 394.324,552.67 385.5,553.5C 385.167,553.5 384.833,553.5 384.5,553.5C 393.287,551.844 402.287,550.844 411.5,550.5C 412.167,550.167 412.833,549.833 413.5,549.5 Z"/></g>
<g><path style="opacity:1" fill="#d6d5d5" d="M 427.5,544.5 C 429.05,546.3 430.05,548.467 430.5,551C 439.851,551.168 449.184,551.668 458.5,552.5C 458.043,553.298 457.376,553.631 456.5,553.5C 447.676,552.67 438.676,552.17 429.5,552C 428.645,549.564 427.979,547.064 427.5,544.5 Z"/></g>
<g><path style="opacity:1" fill="#d6d5d5" d="M 655.5,544.5 C 655.021,547.064 654.355,549.564 653.5,552C 644.324,552.17 635.324,552.67 626.5,553.5C 625.624,553.631 624.957,553.298 624.5,552.5C 633.816,551.668 643.149,551.168 652.5,551C 652.95,548.467 653.95,546.3 655.5,544.5 Z"/></g>
<g><path style="opacity:1" fill="#d7d6d6" d="M 669.5,549.5 C 670.167,549.833 670.833,550.167 671.5,550.5C 680.713,550.844 689.713,551.844 698.5,553.5C 698.167,553.5 697.833,553.5 697.5,553.5C 688.676,552.67 679.676,552.17 670.5,552C 669.748,551.329 669.414,550.496 669.5,549.5 Z"/></g>
<g><path style="opacity:1" fill="#e9e9e9" d="M 550.5,583.5 C 559.5,584.167 568.5,584.833 577.5,585.5C 570.43,590.124 563.597,595.124 557,600.5C 559.071,608.211 561.238,615.878 563.5,623.5C 563.737,624.791 563.404,625.791 562.5,626.5C 555.493,621.824 548.493,617.157 541.5,612.5C 534.023,616.408 527.023,621.075 520.5,626.5C 520.167,626 519.833,625.5 519.5,625C 521.516,616.648 523.682,608.481 526,600.5C 519.048,595.613 512.215,590.613 505.5,585.5C 514.5,584.833 523.5,584.167 532.5,583.5C 535.71,574.912 538.71,566.245 541.5,557.5C 542.243,558.908 543.077,560.241 544,561.5C 545.073,569.213 547.24,576.546 550.5,583.5 Z"/></g>
<g><path style="opacity:1" fill="#d1d0d0" d="M 644.5,566.5 C 646.484,566.484 647.484,567.484 647.5,569.5C 647.357,572.406 646.357,574.739 644.5,576.5C 645.008,574.135 645.675,571.801 646.5,569.5C 645.807,568.482 645.141,567.482 644.5,566.5 Z"/></g>
<g><path style="opacity:1" fill="#d6d6d6" d="M 436.5,568.5 C 437.5,572.5 438.5,576.5 439.5,580.5C 438.034,579.653 437.2,578.32 437,576.5C 436.627,574.302 436.127,572.135 435.5,570C 435.57,569.235 435.903,568.735 436.5,568.5 Z"/></g>
<g><path style="opacity:1" fill="#d1d0d0" d="M 532.5,583.5 C 523.5,584.167 514.5,584.833 505.5,585.5C 504.957,585.44 504.624,585.107 504.5,584.5C 513.81,583.502 523.143,583.168 532.5,583.5 Z"/></g>
<g><path style="opacity:1" fill="#d1d0d0" d="M 550.5,583.5 C 559.857,583.168 569.19,583.502 578.5,584.5C 578.376,585.107 578.043,585.44 577.5,585.5C 568.5,584.833 559.5,584.167 550.5,583.5 Z"/></g>
<g><path style="opacity:1" fill="#cccbcb" d="M 403.5,578.5 C 402.946,581.746 401.946,584.746 400.5,587.5C 400.446,584.008 401.446,581.008 403.5,578.5 Z"/></g>
<g><path style="opacity:1" fill="#c5c5c5" d="M 641.5,586.5 C 640.992,588.865 640.325,591.199 639.5,593.5C 639.957,594.298 640.624,594.631 641.5,594.5C 640.033,597.232 639.033,597.065 638.5,594C 638.921,591.815 639.421,589.649 640,587.5C 640.383,586.944 640.883,586.611 641.5,586.5 Z"/></g>
<g><path style="opacity:1" fill="#cccccc" d="M 563.5,623.5 C 564.339,624.641 565.006,625.974 565.5,627.5C 563.948,628.798 562.948,628.465 562.5,626.5C 563.404,625.791 563.737,624.791 563.5,623.5 Z"/></g>
</svg>
